<svg version="1.1" xmlns="http://www.w3.org/2000/svg" xmlns:xlink="http://www.w3.org/1999/xlink" width="38.37224" height="37.1513" viewBox="0,0,38.37224,37.1513"><defs><radialGradient cx="683" cy="384" r="16.68612" gradientUnits="userSpaceOnUse" id="color-1"><stop offset="0" stop-color="#fff400"/><stop offset="1" stop-color="#ffcf00"/></radialGradient></defs><g transform="translate(-663.81388,-365.42435)"><g data-paper-data="{&quot;isPaintingLayer&quot;:true}" fill-rule="nonzero" stroke-linejoin="miter" stroke-miterlimit="10" stroke-dasharray="" stroke-dashoffset="0" style="mix-blend-mode: normal"><path d="M699.68612,384c0,8.87834 -7.47063,16.07565 -16.68612,16.07565c-9.21549,0 -16.68612,-7.19731 -16.68612,-16.07565c0,-8.87834 7.47063,-16.07565 16.68612,-16.07565c9.21549,0 16.68612,7.19731 16.68612,16.07565z" fill="url(#color-1)" stroke="#000000" stroke-width="5" stroke-linecap="butt"/><path d="M671.27469,378.47799c0,-1.38071 1.11929,-2.5 2.5,-2.5c1.38071,0 2.5,1.11929 2.5,2.5c0,1.38071 -1.11929,2.5 -2.5,2.5c-1.38071,0 -2.5,-1.11929 -2.5,-2.5z" fill="#000000" stroke="none" stroke-width="0.5" stroke-linecap="butt"/><path d="M689.70537,378.67248c0,-1.38071 1.11929,-2.5 2.5,-2.5c1.38071,0 2.5,1.11929 2.5,2.5c0,1.38071 -1.11929,2.5 -2.5,2.5c-1.38071,0 -2.5,-1.11929 -2.5,-2.5z" fill="#000000" stroke="none" stroke-width="0.5" stroke-linecap="butt"/><path d="M676.91682,374.63854c0,0 1.68961,-1.1875 3.4375,-1.1875c0.97109,0 1.96018,1.1875 2.6875,1.1875c0.72933,0 1.71919,-1.1875 2.6875,-1.1875c1.72156,0 3.375,1.1875 3.375,1.1875" fill="none" stroke="#000000" stroke-width="5" stroke-linecap="round"/></g></g></svg>