<svg version="1.1" xmlns="http://www.w3.org/2000/svg" xmlns:xlink="http://www.w3.org/1999/xlink" width="38.90532" height="37.64657" viewBox="0,0,38.90532,37.64657"><defs><radialGradient cx="682.99999" cy="384" r="17.20266" gradientUnits="userSpaceOnUse" id="color-1"><stop offset="0" stop-color="#eddf24"/><stop offset="1" stop-color="#ffd100"/></radialGradient></defs><g transform="translate(-663.54734,-365.17671)"><g data-paper-data="{&quot;isPaintingLayer&quot;:true}" fill-rule="nonzero" stroke-linejoin="miter" stroke-miterlimit="10" stroke-dasharray="" stroke-dashoffset="0" style="mix-blend-mode: normal"><path d="M700.20265,384c0,9.15318 -7.70189,16.57329 -17.20265,16.57328c-9.50077,0 -17.20266,-7.4201 -17.20266,-16.57328c0,-9.15318 7.70189,-16.57329 17.20266,-16.57329c9.50077,0 17.20266,7.42011 17.20266,16.57329z" fill="url(#color-1)" stroke="#000000" stroke-width="4.5" stroke-linecap="butt"/><path d="M670.67604,378.30705c0,-1.42345 1.15394,-2.57739 2.57739,-2.57739c1.42345,0 2.57739,1.15394 2.57739,2.57739c0,1.42345 -1.15394,2.57739 -2.57739,2.57739c-1.42345,0 -2.57739,-1.15394 -2.57739,-2.57739z" fill="#000000" stroke="none" stroke-width="0.5" stroke-linecap="butt"/><path d="M689.91293,378.50756c0,-1.42345 1.15394,-2.57739 2.57739,-2.57739c1.42345,0 2.57739,1.15394 2.57739,2.57739c0,1.42345 -1.15394,2.57739 -2.57739,2.57739c-1.42345,0 -2.57739,-1.15394 -2.57739,-2.57739z" fill="#000000" stroke="none" stroke-width="0.5" stroke-linecap="butt"/><path d="M676.7285,374.34874c0,0 1.74191,-1.22426 3.54391,-1.22426c1.00115,0 2.02086,1.22426 2.7707,1.22426c0.7519,0 1.77241,-1.22426 2.77069,-1.22426c1.77485,0 3.47947,1.22426 3.47947,1.22426" fill="none" stroke="#000000" stroke-width="5" stroke-linecap="round"/></g></g></svg>