<svg version="1.1" xmlns="http://www.w3.org/2000/svg" xmlns:xlink="http://www.w3.org/1999/xlink" width="176.00594" height="321.38097" viewBox="0,0,176.00594,321.38097"><g transform="translate(-594.71183,-223.3211)"><g data-paper-data="{&quot;isPaintingLayer&quot;:true}" fill-rule="nonzero" stroke-width="6.5" stroke-linecap="butt" stroke-linejoin="miter" stroke-miterlimit="10" stroke-dasharray="" stroke-dashoffset="0" style="mix-blend-mode: normal"><path d="M644.04839,499.74949v-231.49897h77.90323v231.49897z" fill="#828282" stroke="#4e4e4e"/><path d="M727.9245,457.18391l34.83871,15.71417l-34.83871,15.71417z" fill="#c8c8c8" stroke="#999999"/><path d="M727.97468,413.31294l34.83871,15.71417l-34.83871,15.71417z" fill="#c8c8c8" stroke="#999999"/><path d="M727.81812,368.67327l34.83871,15.71417l-34.83871,15.71417z" fill="#c8c8c8" stroke="#999999"/><path d="M727.8683,324.8023l34.83871,15.71417l-34.83871,15.71417z" fill="#c8c8c8" stroke="#999999"/><path d="M727.37681,279.41796l34.83871,15.71417l-34.83871,15.71417z" fill="#c8c8c8" stroke="#999999"/><path d="M688.48433,261.98136l13.85263,-30.71164l13.85264,30.71164z" fill="#c8c8c8" stroke="#999999"/><path d="M649.8104,261.93712l13.85264,-30.71164l13.85263,30.71164z" fill="#c8c8c8" stroke="#999999"/><path d="M716.1896,506.04181l-13.85264,30.71164l-13.85263,-30.71164z" data-paper-data="{&quot;index&quot;:null}" fill="#c8c8c8" stroke="#999999"/><path d="M677.51568,506.08605l-13.85263,30.71163l-13.85264,-30.71163z" data-paper-data="{&quot;index&quot;:null}" fill="#c8c8c8" stroke="#999999"/><path d="M637.50511,488.59715l-34.83871,-15.71417l34.83871,-15.71417z" data-paper-data="{&quot;index&quot;:null}" fill="#c8c8c8" stroke="#999999"/><path d="M637.45493,444.72618l-34.83871,-15.71417l34.83871,-15.71417z" data-paper-data="{&quot;index&quot;:null}" fill="#c8c8c8" stroke="#999999"/><path d="M637.61149,400.08651l-34.83871,-15.71417l34.83871,-15.71417z" data-paper-data="{&quot;index&quot;:null}" fill="#c8c8c8" stroke="#999999"/><path d="M637.56131,356.21554l-34.83871,-15.71417l34.83871,-15.71417z" data-paper-data="{&quot;index&quot;:null}" fill="#c8c8c8" stroke="#999999"/><path d="M638.0528,310.83119l-34.83871,-15.71417l34.83871,-15.71417z" data-paper-data="{&quot;index&quot;:null}" fill="#c8c8c8" stroke="#999999"/></g></g></svg>