<svg version="1.1" xmlns="http://www.w3.org/2000/svg" xmlns:xlink="http://www.w3.org/1999/xlink" width="139.17108" height="82.06654" viewBox="0,0,139.17108,82.06654"><g transform="translate(-615.53948,-345.09176)"><g data-paper-data="{&quot;isPaintingLayer&quot;:true}" fill-rule="nonzero" stroke-linecap="butt" stroke-linejoin="miter" stroke-miterlimit="10" stroke-dasharray="" stroke-dashoffset="0" style="mix-blend-mode: normal"><path d="M629.36788,427.1583c-4.46157,0 -8.07839,-2.79584 -8.07839,-6.24468v-63.82717c0,-3.44883 3.61682,-6.24468 8.0784,-6.24468h117.26427c4.46157,0 8.0784,2.79584 8.0784,6.24468v63.82717c0,3.44883 -3.61682,6.24468 -8.07839,6.24468z" fill-opacity="0.06275" fill="#000000" stroke="none" stroke-width="0"/><path d="M624.36787,422.15829c-4.46157,0 -8.07839,-2.79584 -8.07839,-6.24468v-63.82717c0,-3.44883 3.61682,-6.24468 8.0784,-6.24468h117.26427c4.46157,0 8.0784,2.79584 8.0784,6.24468v63.82717c0,3.44883 -3.61682,6.24468 -8.07839,6.24468z" fill="#efefef" stroke="#d3d3d3" stroke-width="1.5"/><text transform="translate(668.35036,376.70455) scale(0.15463,0.15354)" font-size="40" xml:space="preserve" fill="#000000" fill-rule="nonzero" stroke="#000000" stroke-width="0" stroke-linecap="butt" stroke-linejoin="miter" stroke-miterlimit="10" stroke-dasharray="" stroke-dashoffset="0" font-family="Sans Serif" font-weight="normal" text-anchor="start" style="mix-blend-mode: normal"><tspan x="0" dy="0">you suck!!</tspan></text><text transform="translate(657.53889,394.96497) scale(0.15463,0.15354)" font-size="40" xml:space="preserve" fill="#000000" fill-rule="nonzero" stroke="#000000" stroke-width="0" stroke-linecap="butt" stroke-linejoin="miter" stroke-miterlimit="10" stroke-dasharray="" stroke-dashoffset="0" font-family="Sans Serif" font-weight="normal" text-anchor="start" style="mix-blend-mode: normal"><tspan x="0" dy="0">press r to restart.</tspan></text></g></g></svg>