<svg version="1.1" xmlns="http://www.w3.org/2000/svg" xmlns:xlink="http://www.w3.org/1999/xlink" width="51.49492" height="54.23871" viewBox="0,0,51.49492,54.23871"><defs><linearGradient x1="675.18951" y1="388.66241" x2="675.18951" y2="411.59888" gradientUnits="userSpaceOnUse" id="color-1"><stop offset="0" stop-color="#edde23"/><stop offset="1" stop-color="#fcd305"/></linearGradient><linearGradient x1="690.83045" y1="388.53282" x2="690.83045" y2="411.4693" gradientUnits="userSpaceOnUse" id="color-2"><stop offset="0" stop-color="#eddf23"/><stop offset="1" stop-color="#fbd306"/></linearGradient><radialGradient cx="682.99999" cy="384.00001" r="17.20266" gradientUnits="userSpaceOnUse" id="color-3"><stop offset="0" stop-color="#eddf24"/><stop offset="1" stop-color="#ffd100"/></radialGradient></defs><g transform="translate(-657.30222,-362.16172)"><g data-paper-data="{&quot;isPaintingLayer&quot;:true}" fill-rule="nonzero" stroke-linejoin="miter" stroke-miterlimit="10" stroke-dasharray="" stroke-dashoffset="0" style="mix-blend-mode: normal"><path d="M683.49854,400.21624l-14.48825,11.38264l-2.12982,-22.93647z" data-paper-data="{&quot;index&quot;:null}" fill="url(#color-1)" stroke="#000000" stroke-width="5" stroke-linecap="butt"/><path d="M699.13948,388.53282l-2.12982,22.93648l-14.48825,-11.38264z" fill="url(#color-2)" stroke="#000000" stroke-width="5" stroke-linecap="butt"/><path d="M700.20265,384.00001c0,9.15318 -7.70189,16.57329 -17.20265,16.57328c-9.50077,0 -17.20266,-7.4201 -17.20266,-16.57328c0,-9.15318 7.70189,-16.57329 17.20266,-16.57329c9.50077,0 17.20266,7.42011 17.20266,16.57329z" fill="url(#color-3)" stroke="#000000" stroke-width="4.5" stroke-linecap="butt"/><path d="M670.67603,378.30706c0,-1.42345 1.15394,-2.57739 2.57739,-2.57739c1.42345,0 2.57739,1.15394 2.57739,2.57739c0,1.42345 -1.15394,2.57739 -2.57739,2.57739c-1.42345,0 -2.57739,-1.15394 -2.57739,-2.57739z" fill="#000000" stroke="none" stroke-width="0.5" stroke-linecap="butt"/><path d="M689.91293,378.50757c0,-1.42345 1.15394,-2.57739 2.57739,-2.57739c1.42345,0 2.57739,1.15394 2.57739,2.57739c0,1.42345 -1.15394,2.57739 -2.57739,2.57739c-1.42345,0 -2.57739,-1.15394 -2.57739,-2.57739z" fill="#000000" stroke="none" stroke-width="0.5" stroke-linecap="butt"/><path d="M676.7285,374.34875c0,0 1.74191,-1.22426 3.54391,-1.22426c1.00115,0 2.02086,1.22426 2.7707,1.22426c0.7519,0 1.77241,-1.22426 2.77069,-1.22426c1.77485,0 3.47947,1.22426 3.47947,1.22426" fill="none" stroke="#000000" stroke-width="5" stroke-linecap="round"/><path d="M660.52642,368.97738l-1.07353,-0.53676" fill="none" stroke="#000000" stroke-width="NaN" stroke-linecap="round"/><path d="M669.35325,369.33523l-4.53269,-1.43137" fill="none" stroke="#000000" stroke-width="NaN" stroke-linecap="round"/><path d="M670.22405,372.80661l-8.81863,-3.66241" fill="none" stroke="#000000" stroke-width="4.5" stroke-linecap="round"/><path d="M664.34497,364.5332l7.92399,6.29827" fill="none" stroke="#000000" stroke-width="4.5" stroke-linecap="round"/><path d="M668.88208,374.36021l-9.32986,0.15184" fill="none" stroke="#000000" stroke-width="4.5" stroke-linecap="round"/><path d="M695.87531,372.80297l8.81863,-3.66241" data-paper-data="{&quot;index&quot;:null}" fill="none" stroke="#000000" stroke-width="4.5" stroke-linecap="round"/><path d="M701.7544,364.41172l-7.92399,6.29827" data-paper-data="{&quot;index&quot;:null}" fill="none" stroke="#000000" stroke-width="4.5" stroke-linecap="round"/><path d="M697.21728,374.35657l9.32986,0.15185" data-paper-data="{&quot;index&quot;:null}" fill="none" stroke="#000000" stroke-width="4.5" stroke-linecap="round"/></g></g></svg>